<?xml version="1.0" encoding="UTF-8" standalone="no"?>
<!-- Created with Inkscape (http://www.inkscape.org/) -->

<svg
   xmlns:dc="http://purl.org/dc/elements/1.1/"
   xmlns:cc="http://creativecommons.org/ns#"
   xmlns:rdf="http://www.w3.org/1999/02/22-rdf-syntax-ns#"
   xmlns:svg="http://www.w3.org/2000/svg"
   xmlns="http://www.w3.org/2000/svg"
   xmlns:sodipodi="http://sodipodi.sourceforge.net/DTD/sodipodi-0.dtd"
   xmlns:inkscape="http://www.inkscape.org/namespaces/inkscape"
   id="svg2"
   inkscape:version="0.92.4 (5da689c313, 2019-01-14)"
   viewBox="0 0 256 256"
   sodipodi:version="0.32"
   version="1.0"
   inkscape:output_extension="org.inkscape.output.svg.inkscape"
   sodipodi:docname="egg_hard_boiled.svg"
   width="256"
   height="256">
  <title
     id="title825">Hard Boiled Egg</title>
  <defs
     id="defs15" />
  <sodipodi:namedview
     id="base"
     bordercolor="#666666"
     inkscape:window-x="-8"
     inkscape:window-y="-8"
     pagecolor="#ffffff"
     inkscape:zoom="0.85487289"
     inkscape:pageshadow="2"
     borderopacity="1.0"
     inkscape:current-layer="layer1"
     inkscape:cx="28.274095"
     inkscape:cy="20.199544"
     inkscape:window-width="1920"
     showgrid="false"
     inkscape:pageopacity="0.0"
     inkscape:window-height="1025"
     inkscape:document-units="px"
     inkscape:window-maximized="1"
     fit-margin-top="0"
     fit-margin-left="0"
     fit-margin-right="0"
     fit-margin-bottom="0" />
  <g
     id="layer1"
     inkscape:label="Layer 1"
     inkscape:groupmode="layer"
     transform="translate(-0.04244262,138.91766)">
    <g
       id="g3173"
       transform="matrix(1.8562197,0,0,1.8562197,-0.03634329,-120.43608)">
      <path
         id="rect3033"
         sodipodi:nodetypes="ccccccc"
         style="fill:#dadada"
         d="M 134.8,30.733 C 126.22,53.156 109.39,71.284 91.804,87.106 75.769,100.46 52.785,110.04 31.868,103.12 c -6.794,0.78 -0.776,5.75 2.902,6.93 20.849,12.05 47.154,4.22 64.861,-9.81 22.589,-16.286 36.349,-43.395 37.409,-71.247 -1.3,-2.227 -0.07,0.384 -2.24,1.74 z"
         inkscape:connector-curvature="0" />
      <path
         id="path3802"
         sodipodi:nodetypes="ccccccccc"
         style="fill:#fafafa"
         d="M 92.694,2.601 C 72.216,5.9894 54.178,14.457 36.22,24.573 23.127,32.971 9.645,42.186 2.432,56.363 -2.6721,71.565 8.2419,84.898 18.296,94.904 33.664,109.34 52.387,108 71.143,99.788 90.634,90.3 106.01,74.419 119.34,57.655 127.55,45.624 136.93,35.827 136.17,19.285 131.43,3.342 114.19,-0.538 100.09,1.744 98.192,1.8953 94.588,2.4493 92.694,2.601 Z"
         inkscape:connector-curvature="0" />
      <path
         id="path3165"
         style="fill:#f5c13a"
         d="M 86.889,46.488 C 93.023,60.946 82.396,79.301 63.167,87.459 43.938,95.617 23.354,90.505 17.22,76.047 11.086,61.59 21.714,43.235 40.942,35.076 c 19.163,-8.13 39.67,-3.093 45.887,11.271"
         inkscape:connector-curvature="0" />
      <path
         id="path1473"
         style="fill:#000000"
         d="M 40.755,34.339 C 31,38.478 23.432,45.209 19.047,52.783 c -4.385,7.574 -5.58,16.051 -2.408,23.528 3.172,7.477 10.098,12.508 18.593,14.618 8.494,2.11 18.581,1.316 28.335,-2.823 9.755,-4.139 17.364,-10.853 21.749,-18.427 4.362,-7.534 5.508,-15.941 2.4,-23.389 -0.017,-0.04 -0.003,-0.087 -0.02,-0.127 -0.011,-0.029 -0.023,-0.058 -0.037,-0.086 -0.007,-0.02 -0.016,-0.039 -0.025,-0.058 C 84.42,38.591 77.497,33.594 69.021,31.512 60.545,29.43 50.476,30.215 40.755,34.339 Z m 0.586,1.381 c 9.441,-4.006 19.228,-4.739 27.351,-2.744 8.122,1.995 14.56,6.694 17.562,13.629 0.01,0.03 0.022,0.058 0.036,0.086 0.008,0.02 0.016,0.039 0.025,0.058 2.961,6.98 1.893,14.905 -2.309,22.162 C 79.804,76.168 72.455,82.706 62.981,86.725 53.508,90.745 43.728,91.474 35.59,89.453 27.451,87.432 20.981,82.705 18.02,75.725 15.058,68.745 16.143,60.779 20.345,53.522 24.547,46.265 31.867,39.739 41.341,35.72 Z"
         inkscape:connector-curvature="0" />
      <path
         id="path1386"
         style="fill:#000000"
         d="m 106.01,0.94572 c -25.727,0.20518 -49.667,11.582 -71.636,23.963 -12.816,7.812 -25.305,17.526 -32.506,30.98 -4.4681,10.259 -0.1405,21.881 6.5653,30.069 7.8997,10.352 17.859,19.142 28.618,26.392 15.892,8.42 35.374,4.64 50.445,-3.79 26.234,-13.87 45.024,-40.566 49.354,-69.912 1.17,-9.336 2.86,-20.274 -3.62,-28.143 -5.56,-7.3319 -15.08,-9.9036 -23.91,-9.5546 -1.1,-0.01532 -2.21,-0.01254 -3.31,-0.00468 z m 0.49,1.3893 c 10.73,-0.7466 23.8,3.03 27.93,14.02 3.91,11.027 -3,21.789 -8.55,30.864 -11.04,17.229 -25.61,32.056 -41.702,44.591 -14.289,9.51 -32.337,16.67 -49.538,11.46 -13.624,-4.509 -23.628,-16.167 -30.27,-28.445 -3.615,-7.236 -3.6056,-16.444 1.6335,-22.924 6.4505,-9.234 15.548,-16.241 24.538,-22.843 15.081,-9.936 31.95,-16.792 48.872,-22.878 8.81,-2.4704 17.956,-3.5811 27.086,-3.845 z m 29.45,28.069 c 0.76,8.935 -2.94,17.428 -5.09,25.927 -7.36,21.462 -23.36,39.328 -43.016,50.399 -15.192,9.1 -35.499,12.59 -51.475,3.46 -3.65,-1.57 -9.628,-8.21 -1.959,-5.24 8.699,2.08 17.962,2.71 26.495,-0.43 19.91,-5.345 35.991,-19.33 49.255,-34.555 10.66,-11.641 20.51,-24.519 25.79,-39.561 z"
         inkscape:connector-curvature="0" />
      <path
         id="path6097"
         style="fill:#efa300"
         d="m 70.669,37.07 c 3.005,2.118 5.398,4.816 6.875,8.125 l 0.062,0.125 c 5.546,12.672 -4.051,28.755 -21.437,35.906 -8.173,3.361 -16.583,4.078 -23.813,2.656 7.969,3.726 18.799,3.814 29.188,-0.593 16.622,-7.053 25.833,-22.94 20.531,-35.438 L 82.012,47.726 C 79.893,42.83 75.801,39.255 70.669,37.07 Z"
         inkscape:connector-curvature="0" />
      <path
         id="path9894"
         style="fill:#efa300"
         d="m 54.94,37.97 c -4.52,-0.018 -9.316,0.812 -14.031,2.813 -14.465,6.137 -22.458,19.936 -17.844,30.812 0.432,1.019 1.044,1.92 1.657,2.813 -4.043,-12.045 4.456,-26.84 19.656,-33.532 3.518,-1.548 7.079,-2.449 10.562,-2.906 z"
         inkscape:connector-curvature="0" />
    </g>
  </g>
  <metadata
     id="metadata12">
    <rdf:RDF>
      <cc:Work>
        <dc:format>image/svg+xml</dc:format>
        <dc:type
           rdf:resource="http://purl.org/dc/dcmitype/StillImage" />
        <cc:license
           rdf:resource="http://creativecommons.org/publicdomain/zero/1.0/" />
        <dc:publisher>
          <cc:Agent
             rdf:about="http://openclipart.org/">
            <dc:title>OpenClipart</dc:title>
          </cc:Agent>
        </dc:publisher>
        <dc:title>Hard Boiled Egg</dc:title>
        <dc:date>2008-05-26T11:54:54</dc:date>
        <dc:description />
        <dc:source>https://openclipart.org/detail/17016</dc:source>
        <dc:creator>
          <cc:Agent>
            <dc:title>jean_victor_balin</dc:title>
          </cc:Agent>
        </dc:creator>
        <dc:subject>
          <rdf:Bag>
            <rdf:li>egg</rdf:li>
            <rdf:li>food</rdf:li>
          </rdf:Bag>
        </dc:subject>
      </cc:Work>
      <cc:License
         rdf:about="http://creativecommons.org/publicdomain/zero/1.0/">
        <cc:permits
           rdf:resource="http://creativecommons.org/ns#Reproduction" />
        <cc:permits
           rdf:resource="http://creativecommons.org/ns#Distribution" />
        <cc:permits
           rdf:resource="http://creativecommons.org/ns#DerivativeWorks" />
      </cc:License>
    </rdf:RDF>
  </metadata>
</svg>
