<?xml version="1.0" encoding="UTF-8" standalone="no"?>
<!-- Created with Inkscape (http://www.inkscape.org/) -->

<svg
   xmlns:dc="http://purl.org/dc/elements/1.1/"
   xmlns:cc="http://creativecommons.org/ns#"
   xmlns:rdf="http://www.w3.org/1999/02/22-rdf-syntax-ns#"
   xmlns:svg="http://www.w3.org/2000/svg"
   xmlns="http://www.w3.org/2000/svg"
   xmlns:sodipodi="http://sodipodi.sourceforge.net/DTD/sodipodi-0.dtd"
   xmlns:inkscape="http://www.inkscape.org/namespaces/inkscape"
   id="svg2"
   xml:space="preserve"
   version="1.0"
   viewBox="0 0 256 256.00001"
   inkscape:version="0.92.4 (5da689c313, 2019-01-14)"
   sodipodi:docname="cheese_wheel.svg"
   width="256"
   height="256"><title
   id="title1002">Cheese Wheel</title><defs
   id="defs195">
			
			
		
				
				
				
				
				
				
				
				
				
				
				
				
				
				
				
				
				
				
				
				
				
				
				
				
				
				
				
				
				
			</defs><sodipodi:namedview
   pagecolor="#ffffff"
   bordercolor="#666666"
   borderopacity="1"
   objecttolerance="10"
   gridtolerance="10"
   guidetolerance="10"
   inkscape:pageopacity="0"
   inkscape:pageshadow="2"
   inkscape:window-width="1920"
   inkscape:window-height="1025"
   id="namedview193"
   showgrid="false"
   inkscape:zoom="1.6151698"
   inkscape:cx="15.92686"
   inkscape:cy="93.700143"
   inkscape:window-x="-8"
   inkscape:window-y="-8"
   inkscape:window-maximized="1"
   inkscape:current-layer="svg2"
   fit-margin-top="0"
   fit-margin-left="0"
   fit-margin-right="0"
   fit-margin-bottom="0" />
		<g
   id="g1473"
   transform="matrix(0.5413285,0,0,0.5413285,4.4019675e-4,50.642147)"><g
     id="g43">
					<g
   id="g45">
						<path
   inkscape:connector-curvature="0"
   d="m 472.91,162.44 c -0.27,6.87 -0.5,12.81 -3.01,21.49 -2.81,9.68 -7.18,17.79 -9.32,21.05 -5.66,8.64 -15.14,23.11 -41.31,39.3 8.58,-5.26 14.06,-15.39 14.06,-28.42 26.56,-16.3 39.58,-34.9 39.58,-53.42"
   style="fill:#d6ab00"
   id="path47" />
						<path
   inkscape:connector-curvature="0"
   d="m 472.32,172.03 c -1.26,7.71 -1.37,8.34 -2.94,13.61 l -2.06,5.89 c -1.02,2.31 -2.36,5.41 -3.49,7.67 l -3.25,5.78 c -1.61,2.43 -3.76,5.67 -5.49,8.01 l -4.66,5.69 c -2.57,2.73 -6.05,6.33 -8.77,8.92 l -6.5,5.56 c -9.31,7 -9.67,7.27 -15.89,11.12 7.7,-4.72 12.9,-13.36 13.89,-24.49 2.6,-1.77 6.07,-4.13 8.67,-5.9 16.53,-13.07 20.28,-20.48 24.63,-29.06 4.31,-7.37 6.45,-14.89 6.45,-22.39 -0.11,2.88 -0.21,6.73 -0.59,9.59"
   style="fill:#d6ab00"
   id="path49" />
						<path
   inkscape:connector-curvature="0"
   d="m 472.32,172.03 c -1.26,7.71 -1.37,8.34 -2.94,13.61 l -2.06,5.89 c -1.02,2.31 -2.36,5.41 -3.49,7.67 l -3.25,5.78 c -1.61,2.43 -3.76,5.67 -5.49,8.01 l -4.66,5.69 c -2.57,2.73 -6.05,6.33 -8.77,8.92 l -6.5,5.56 c -9.31,7 -9.67,7.27 -15.89,11.12 6.58,-4.04 11.34,-10.93 13.2,-19.8 2.59,-1.77 6.06,-4.14 8.65,-5.91 10.4,-8.23 27.8,-22.02 31.29,-49.84 0.33,-2.1 0.5,-4.19 0.5,-6.29 -0.11,2.88 -0.21,6.73 -0.59,9.59"
   style="fill:#c29b00"
   id="path51" />
						<path
   inkscape:connector-curvature="0"
   d="m 469.38,185.64 c -2.62,7.46 -2.89,8.24 -5.55,13.56 l -3.25,5.78 c -1.61,2.43 -3.76,5.67 -5.49,8.02 l -4.66,5.68 c -2.57,2.73 -6.05,6.34 -8.77,8.92 l -6.5,5.56 c -9.31,7 -9.67,7.28 -15.89,11.12 5.56,-3.41 9.82,-8.87 12.13,-15.83 0.48,-0.3 1.12,-0.71 1.6,-1.01 13.51,-9.37 33.94,-23.54 39.03,-53.31 l -1.15,5.97 -1.5,5.54"
   style="fill:#ad8a00"
   id="path53" />
						<path
   inkscape:connector-curvature="0"
   d="m 463.83,199.2 c -4.08,7.26 -4.6,8.19 -8.74,13.8 l -4.66,5.68 c -2.57,2.73 -6.05,6.34 -8.77,8.92 l -6.5,5.56 c -9.31,7 -9.67,7.28 -15.89,11.12 4.59,-2.82 8.3,-7.03 10.75,-12.33 19.54,-13.06 29.1,-21.72 37.72,-41.52 l -2.44,5.77 -1.47,3"
   style="fill:#997a00"
   id="path55" />
						<path
   inkscape:connector-curvature="0"
   d="m 455.09,213 c -5.59,6.82 -6.76,8.24 -13.43,14.6 l -6.5,5.56 c -9.31,7 -9.67,7.28 -15.89,11.12 3.6,-2.21 6.66,-5.28 8.99,-9.06 2.54,-1.68 5.93,-3.93 8.47,-5.62 8.01,-6.18 17.09,-13.18 24.83,-26.26 l -3.58,5.66 -2.89,4"
   style="fill:#856a00"
   id="path57" />
						<path
   inkscape:connector-curvature="0"
   d="m 441.66,227.6 c -7.94,6.8 -11.92,10.2 -22.39,16.68 2.59,-1.58 4.89,-3.61 6.85,-6.03 2.5,-1.65 5.84,-3.86 8.34,-5.52 6.76,-5.19 12.09,-9.29 18.5,-17.04 l -4.9,5.6 c -1.9,1.9 -4.38,4.52 -6.4,6.31"
   style="fill:#705900"
   id="path59" />
						<path
   inkscape:connector-curvature="0"
   d="m 419.27,244.28 c 1.41,-0.86 2.74,-1.86 3.97,-2.98 2.46,-1.62 5.72,-3.78 8.17,-5.4 2.71,-2.08 6.31,-4.86 8.9,-7.07 l -6.63,5.51 c -4.24,3.1 -10,7.08 -14.41,9.94"
   style="fill:#5c4900"
   id="path61" />
					</g>
				</g><g
     id="g63">
					<g
   id="g65">
						<path
   inkscape:connector-curvature="0"
   d="m 433.33,215.86 v -37.88 c 15.95,-9.78 27.01,-20.4 33.31,-31.33 v 37.88 c -6.3,10.93 -17.36,21.55 -33.31,31.33"
   style="fill:#ebbc00"
   id="path67" />
						<path
   inkscape:connector-curvature="0"
   d="m 466.64,184.53 v -37.88 c 3.01,-5.23 4.93,-10.53 5.77,-15.84 v 37.88 c -0.84,5.31 -2.76,10.61 -5.77,15.84"
   style="fill:#d6ab00"
   id="path69" />
						<path
   inkscape:connector-curvature="0"
   d="m 472.42,168.69 v -37.88 c 0.32,-2.08 0.49,-4.17 0.49,-6.25 v 37.88 c 0,2.08 -0.17,4.17 -0.49,6.25"
   style="fill:#c29b00"
   id="path71" />
					</g>
				</g><path
     inkscape:connector-curvature="0"
     d="m 395.57,126.33 c 20.86,5.66 37.76,28.79 37.76,51.65 v 37.88 c 0,22.87 -16.9,36.82 -37.76,31.16 l -159.1,-43.2 V 83.13 Z"
     style="fill:#ffff99"
     id="path73" /><path
     inkscape:connector-curvature="0"
     d="m 395.57,126.33 -159.1,-43.2 21.2,77.51 C 168.62,164.7 84.63,142.96 55.65,108.36 26.672,73.749 60.493,35.572 136.99,16.535 213.5,-2.502 312.13,2.712 374.22,29.077 c 62.1,26.364 70.97,66.798 21.35,97.253 z"
     style="fill:#deb100"
     id="path75" /><g
     id="g77">
					<g
   id="g79">
						<path
   inkscape:connector-curvature="0"
   d="M 20.853,216.74 C 1.611,193.74 0.528,173.32 0.007,163.51 0,172.82 4.13,183.35 12.733,193.63 c 35.856,42.82 139.79,69.72 249.97,64.7 0,16.82 -1.22,26.84 -2.97,26.92 -14.01,0.44 -43.15,1.35 -71.43,-1.75 -24.32,-2.67 -45.45,-5.43 -77.26,-14.56 -22.852,-6.55 -64.96,-22.05 -90.187,-52.2"
   style="fill:#d6ab00"
   id="path81" />
						<path
   inkscape:connector-curvature="0"
   d="m 259.73,285.25 c -5.2,0.2 -19,0.73 -29.09,0.5 l -14.31,-0.36 c -4.25,-0.23 -9.9,-0.48 -14.14,-0.76 L 188.3,283.5 c -4.11,-0.46 -9.6,-1.01 -13.71,-1.52 l -13.32,-1.88 c -3.97,-0.68 -9.26,-1.53 -13.22,-2.27 l -12.61,-2.59 c -3.8,-0.91 -8.87,-2.06 -12.66,-3.04 l -11.74,-3.26 c -3.62,-1.15 -8.48,-2.62 -12.078,-3.85 l -10.684,-3.9 c -3.469,-1.43 -8.119,-3.29 -11.55,-4.81 l -9.402,-4.48 c -3.355,-1.8 -7.849,-4.17 -11.141,-6.08 l -7.863,-4.94 c -3.299,-2.34 -7.689,-5.48 -10.876,-7.97 l -6.118,-5.26 c -3.243,-3.18 -7.446,-7.53 -10.473,-10.91 l -4.353,-5.58 c -1.686,-2.51 -3.93,-5.85 -5.479,-8.45 l -3.005,-5.7 c -1.023,-2.35 -2.407,-5.48 -3.309,-7.88 l -1.863,-5.85 c -0.543,-2.31 -1.297,-5.38 -1.723,-7.7 l -0.792,-6 c -0.114,-2.15 -0.314,-5 -0.329,-7.15 0,10.39 4.13,20.92 12.733,31.2 35.856,42.82 139.78,69.72 249.96,64.7 0,16.82 -1.22,26.84 -2.97,26.92"
   style="fill:#d6ab00"
   id="path83" />
						<path
   inkscape:connector-curvature="0"
   d="m 259.73,285.25 c -5.2,0.2 -19,0.73 -29.09,0.5 l -14.31,-0.36 c -4.25,-0.23 -9.9,-0.48 -14.14,-0.76 L 188.3,283.5 c -4.11,-0.46 -9.6,-1.01 -13.71,-1.52 l -13.32,-1.88 c -3.97,-0.68 -9.26,-1.53 -13.22,-2.27 l -12.61,-2.59 c -3.8,-0.91 -8.87,-2.06 -12.66,-3.04 l -11.74,-3.26 c -3.62,-1.15 -8.48,-2.62 -12.078,-3.85 l -10.684,-3.9 c -3.469,-1.43 -8.119,-3.29 -11.55,-4.81 l -9.402,-4.48 c -3.355,-1.8 -7.849,-4.17 -11.141,-6.08 l -7.863,-4.94 c -3.299,-2.34 -7.689,-5.48 -10.876,-7.97 l -6.118,-5.26 c -3.243,-3.18 -7.446,-7.53 -10.473,-10.91 l -4.353,-5.58 c -1.686,-2.51 -3.93,-5.85 -5.479,-8.45 l -3.005,-5.7 c -1.023,-2.35 -2.407,-5.48 -3.309,-7.88 l -1.863,-5.85 c -0.543,-2.31 -1.297,-5.38 -1.723,-7.7 l -0.792,-6 c -0.114,-2.15 -0.314,-5 -0.329,-7.15 0,10.39 4.13,20.92 12.733,31.2 35.856,42.82 139.78,69.72 249.96,64.7 0,16.82 -1.22,26.84 -2.97,26.92"
   style="fill:#c29b00"
   id="path85" />
						<path
   inkscape:connector-curvature="0"
   d="m 259.73,285.25 c -5.2,0.2 -19,0.73 -29.09,0.5 l -14.31,-0.36 c -4.25,-0.23 -9.9,-0.48 -14.14,-0.76 L 188.3,283.5 c -4.11,-0.46 -9.6,-1.01 -13.71,-1.52 l -13.32,-1.88 c -3.97,-0.68 -9.26,-1.53 -13.22,-2.27 l -12.61,-2.59 c -3.8,-0.91 -8.87,-2.06 -12.66,-3.04 l -11.74,-3.26 c -3.62,-1.15 -8.48,-2.62 -12.078,-3.85 l -10.684,-3.9 c -3.469,-1.43 -8.119,-3.29 -11.55,-4.81 l -9.402,-4.48 c -3.355,-1.8 -7.849,-4.17 -11.141,-6.08 l -7.863,-4.94 c -3.299,-2.34 -7.689,-5.48 -10.876,-7.97 l -6.118,-5.26 c -3.243,-3.18 -7.446,-7.53 -10.473,-10.91 l -4.353,-5.58 c -1.686,-2.51 -3.93,-5.85 -5.479,-8.45 l -3.005,-5.7 c -1.023,-2.35 -2.407,-5.48 -3.309,-7.88 l -1.863,-5.85 c -0.543,-2.31 -1.297,-5.38 -1.723,-7.7 l -0.792,-6 c -0.114,-2.15 -0.314,-5 -0.329,-7.15 0,10.39 4.13,20.92 12.733,31.2 35.856,42.82 139.78,69.72 249.96,64.7 0,16.82 -1.22,26.84 -2.97,26.92"
   style="fill:#ad8a00"
   id="path87" />
						<path
   inkscape:connector-curvature="0"
   d="m 259.73,285.25 c -5.19,0.2 -18.99,0.73 -29.09,0.5 l -14.31,-0.36 c -4.25,-0.23 -9.9,-0.48 -14.14,-0.76 L 188.3,283.5 c -4.11,-0.46 -9.6,-1.01 -13.71,-1.52 l -13.32,-1.88 c -3.97,-0.68 -9.26,-1.53 -13.22,-2.27 l -12.61,-2.59 c -3.8,-0.91 -8.87,-2.06 -12.66,-3.04 l -11.74,-3.26 c -3.62,-1.15 -8.48,-2.62 -12.078,-3.85 l -10.684,-3.9 c -3.469,-1.43 -8.119,-3.29 -11.55,-4.81 l -9.402,-4.48 c -3.355,-1.8 -7.849,-4.17 -11.141,-6.08 l -7.863,-4.94 c -3.299,-2.34 -7.689,-5.48 -10.876,-7.97 l -6.118,-5.26 c -3.243,-3.18 -7.446,-7.53 -10.473,-10.91 l -4.353,-5.58 c -1.686,-2.51 -3.93,-5.85 -5.479,-8.45 l -3.005,-5.7 c -1.023,-2.35 -2.407,-5.48 -3.309,-7.88 l -1.863,-5.85 c -0.543,-2.31 -1.297,-5.38 -1.723,-7.7 l -0.792,-6 c -0.114,-2.15 -0.314,-5 -0.329,-7.15 0,10.39 4.13,20.92 12.733,31.2 3.931,4.69 8.68,9.19 14.166,13.48 20.964,24.88 47.054,55.84 235.76,56.62 -0.24,13.54 -1.38,21.45 -2.93,21.52"
   style="fill:#997a00"
   id="path89" />
						<path
   inkscape:connector-curvature="0"
   d="m 259.73,285.25 c -5.2,0.2 -19,0.73 -29.09,0.5 l -14.31,-0.36 c -4.25,-0.23 -9.9,-0.48 -14.14,-0.76 L 188.3,283.5 c -4.11,-0.46 -9.6,-1.01 -13.71,-1.52 l -13.32,-1.88 c -3.97,-0.68 -9.26,-1.53 -13.22,-2.27 l -12.61,-2.59 c -3.8,-0.91 -8.87,-2.06 -12.66,-3.04 l -11.74,-3.26 c -3.62,-1.15 -8.48,-2.62 -12.078,-3.85 l -10.684,-3.9 c -3.469,-1.43 -8.119,-3.29 -11.55,-4.81 l -9.402,-4.48 c -3.355,-1.8 -7.849,-4.17 -11.141,-6.08 l -7.863,-4.94 c -3.299,-2.34 -7.689,-5.48 -10.876,-7.97 l -6.118,-5.26 c -3.243,-3.18 -7.446,-7.53 -10.473,-10.91 l -4.353,-5.58 c -1.686,-2.51 -3.93,-5.85 -5.479,-8.45 l -3.005,-5.7 c -1.023,-2.35 -2.407,-5.48 -3.309,-7.88 l -1.863,-5.85 c -0.543,-2.31 -1.297,-5.38 -1.723,-7.7 l -0.792,-6 c -0.114,-2.15 -0.314,-5 -0.329,-7.15 0,8.54 2.791,17.18 8.563,25.69 31.097,85.8 159.86,83.65 253.9,82.08 -0.44,9.56 -1.44,14.99 -2.73,15.05"
   style="fill:#856a00"
   id="path91" />
						<path
   inkscape:connector-curvature="0"
   d="m 259.73,285.25 c -5.2,0.2 -19,0.73 -29.09,0.5 l -14.31,-0.36 c -4.25,-0.23 -9.9,-0.48 -14.14,-0.76 L 188.3,283.5 c -4.11,-0.46 -9.6,-1.01 -13.71,-1.52 l -13.32,-1.88 c -3.97,-0.68 -9.26,-1.53 -13.22,-2.27 l -12.61,-2.59 c -3.8,-0.91 -8.87,-2.06 -12.66,-3.04 l -11.74,-3.26 c -3.62,-1.15 -8.48,-2.62 -12.078,-3.85 l -10.684,-3.9 c -3.469,-1.43 -8.119,-3.29 -11.55,-4.81 l -9.402,-4.48 c -3.355,-1.8 -7.849,-4.17 -11.141,-6.08 l -7.863,-4.94 c -3.299,-2.34 -7.689,-5.48 -10.876,-7.97 l -6.118,-5.26 c -3.243,-3.18 -7.446,-7.53 -10.473,-10.91 l -4.353,-5.58 c -1.686,-2.51 -3.93,-5.85 -5.479,-8.45 l -3.005,-5.7 c -1.023,-2.35 -2.407,-5.48 -3.309,-7.88 l -1.863,-5.85 c -0.543,-2.31 -1.297,-5.38 -1.723,-7.7 l -0.792,-6 c -0.114,-2.15 -0.314,-5 -0.329,-7.15 0,2.97 0.337,5.95 1.018,8.93 0.204,1.6 0.476,3.73 0.68,5.34 10.147,50.43 63.555,108.61 260.37,99.42 -0.53,5.85 -1.35,9.08 -2.34,9.13"
   style="fill:#705900"
   id="path93" />
						<path
   inkscape:connector-curvature="0"
   d="m 259.73,285.25 c -5.19,0.2 -18.99,0.73 -29.09,0.5 l -14.31,-0.36 c -4.25,-0.23 -9.9,-0.48 -14.14,-0.76 L 188.3,283.5 c -4.11,-0.46 -9.6,-1.01 -13.71,-1.52 l -13.32,-1.88 c -3.97,-0.68 -9.26,-1.53 -13.22,-2.27 l -12.61,-2.59 c -3.8,-0.91 -8.87,-2.06 -12.66,-3.04 l -11.74,-3.26 c -3.62,-1.15 -8.48,-2.62 -12.078,-3.85 l -10.684,-3.9 c -3.469,-1.43 -8.119,-3.29 -11.55,-4.81 l 9.49,3.99 c 61.502,22.63 112.65,24.66 175.25,20.59 -0.48,2.77 -1.07,4.26 -1.74,4.29"
   style="fill:#5c4900"
   id="path95" />
						<path
   inkscape:connector-curvature="0"
   d="m 259.73,285.25 c -5.19,0.2 -18.99,0.73 -29.09,0.5 l -14.31,-0.36 c -4.25,-0.23 -9.9,-0.48 -14.14,-0.76 -0.88,-0.06 -2.06,-0.14 -2.94,-0.2 2.04,0.13 4.76,0.31 6.79,0.45 17.05,0.74 30.51,1.33 54.33,-0.14 -0.2,0.32 -0.42,0.5 -0.64,0.51"
   style="fill:#473901"
   id="path97" />
					</g>
				</g><g
     id="g99">
					<g
   id="g101">
						<path
   inkscape:connector-curvature="0"
   d="m 0,162.43 v -37.88 c 0,2.97 0.337,5.95 1.018,8.93 v 37.88 C 0.337,168.38 0,165.4 0,162.43"
   style="fill:#705900"
   id="path103" />
						<path
   inkscape:connector-curvature="0"
   d="m 1.018,171.36 v -37.88 c 1.276,5.58 3.76,11.17 7.505,16.7 v 37.88 C 4.779,182.53 2.294,176.94 1.018,171.36"
   style="fill:#856a00"
   id="path105" />
						<path
   inkscape:connector-curvature="0"
   d="m 8.524,188.06 v -37.88 c 1.26,1.86 2.662,3.72 4.209,5.57 3.834,4.58 8.447,8.97 13.763,13.17 v 37.88 c -5.316,-4.2 -9.928,-8.59 -13.763,-13.17 -1.547,-1.85 -2.95,-3.71 -4.209,-5.57"
   style="fill:#997a00"
   id="path107" />
						<path
   inkscape:connector-curvature="0"
   d="m 26.496,206.8 v -37.88 c 44.392,35.04 137.8,56.01 236.2,51.53 v 37.88 c -98.4,4.48 -191.81,-16.49 -236.2,-51.53"
   style="fill:#ad8a00"
   id="path109" />
					</g>
				</g><g
     id="g111">
					<g
   id="g113">
						<path
   inkscape:connector-curvature="0"
   d="m 391.92,28.718 c 18.26,7.962 41.53,19.803 59.64,40.862 8.34,9.688 13.07,19.182 15.58,25.439 4.43,11.061 5.2,18.821 5.75,27.821 0.02,20.23 -13,38.84 -39.56,55.14 0,-22.86 -16.9,-45.99 -37.76,-51.66 C 445.19,95.874 436.32,55.44 374.22,29.075 312.13,2.712 213.49,-2.502 136.99,16.535 60.494,35.572 26.67,73.75 55.65,108.36 c 28.978,34.6 112.97,56.34 202.02,52.28 2.78,10.16 5.03,36.94 5.03,59.81 C 152.52,225.47 48.59,198.57 12.73,155.75 4.13,145.47 0,134.94 0,124.55 0.463,112.74 1.429,103.1 9.687,86.654 12.474,81.104 19.326,69.872 33.913,57.004 63.008,31.337 107.42,18.476 125.16,14.137 227.9,-10.984 335.47,4.085 391.92,28.718"
   style="fill:#ebbc00"
   id="path115" />
						<path
   inkscape:connector-curvature="0"
   d="m 259,166.96 c -0.9,1.15 -75.56,3.28 -76.31,3.29 -7.82,0.11 -7.82,0.11 -15.85,4.98 9.49,6.17 25.36,16.5 95.29,24.07 0.37,7.03 0.57,14.26 0.57,21.15 C 152.52,225.47 48.59,198.57 12.73,155.75 4.13,145.47 0,134.94 0,124.55 c 0.295,-7.53 0.34,-8.69 1.493,-15.16 l 1.442,-6.02 C 5.163,96.475 5.762,94.622 9.686,86.654 l 3.395,-5.828 c 4.888,-7.143 5.399,-7.889 9.716,-12.871 l 5.307,-5.589 c 3.187,-2.942 7.522,-6.775 10.868,-9.534 l 7.137,-5.257 C 49.49,45.374 54.005,42.447 57.47,40.38 l 8.825,-4.813 c 3.541,-1.708 8.248,-4.019 11.838,-5.623 l 10.366,-4.28 c 3.74,-1.358 8.71,-3.221 12.481,-4.493 l 11.79,-3.679 c 3.98,-1.079 9.28,-2.579 13.29,-3.58 l 12.95,-2.983 c 4.1,-0.798 9.55,-1.924 13.65,-2.653 l 13.46,-2.164 c 4.15,-0.537 9.67,-1.312 13.83,-1.787 l 13.78,-1.368 c 4.19,-0.295 9.76,-0.749 13.95,-0.983 l 13.94,-0.593 c 4.19,-0.063 9.78,-0.176 13.96,-0.212 l 13.94,0.167 c 4.17,0.163 9.72,0.31 13.88,0.544 l 13.77,0.92 c 4.1,0.389 9.58,0.848 13.68,1.297 l 13.43,1.663 c 4.02,0.619 9.38,1.383 13.38,2.064 l 12.92,2.407 c 3.9,0.859 9.12,1.943 13,2.87 l 12.22,3.149 c 3.78,1.124 8.84,2.56 12.6,3.761 l 11.3,3.881 c 3.67,1.438 8.59,3.297 12.22,4.827 l 9.75,4.399 c 11.5,5.873 21.44,10.945 34.42,21.401 l 6.01,5.227 c 2.92,2.876 6.73,6.79 9.46,9.835 l 4.33,5.459 c 1.74,2.532 4.04,5.919 5.64,8.542 l 3.03,5.642 c 1.06,2.38 2.48,5.55 3.42,7.981 l 1.9,5.815 c 0.57,2.33 1.35,5.43 1.8,7.78 l 0.84,5.98 c 0.14,2.34 0.36,5.45 0.39,7.78 0,18.52 -13.02,37.13 -39.58,53.42 2.57,-2.37 6,-5.53 8.57,-7.91 43.29,-35.33 19.33,-71.191 11.87,-72.375 -4.79,-0.76 -5.73,0.07 -17.21,10.235 -14.11,12.48 -22.59,17.23 -31.56,22.26 -3.01,-1.67 -6.17,-2.98 -9.43,-3.86 C 445.19,95.876 436.32,55.442 374.22,29.077 312.13,2.712 213.49,-2.502 136.99,16.535 60.494,35.572 26.67,73.75 55.65,108.36 c 28.978,34.6 112.97,56.34 202.02,52.28 0.46,1.69 0.9,3.82 1.33,6.32"
   style="fill:#ebbc00"
   id="path117" />
						<path
   inkscape:connector-curvature="0"
   d="M 258.16,162.65 C 237.27,163.54 205.7,164.89 157,157.9 87.344,147.88 87.344,147.88 87.349,155.96 c 0,0.37 17.971,38.8 169.28,50.7 1.75,0.08 4.6,-0.98 5.83,0.26 0.15,4.56 0.24,9.11 0.24,13.53 -110.18,5.02 -214.11,-21.88 -249.97,-64.7 -8.6,-10.28 -12.73,-20.81 -12.73,-31.2 0.295,-7.53 0.34,-8.69 1.493,-15.16 l 1.442,-6.02 C 5.162,96.475 5.761,94.622 9.685,86.654 l 3.395,-5.828 c 4.888,-7.143 5.399,-7.889 9.716,-12.871 l 5.307,-5.589 c 3.187,-2.942 7.522,-6.775 10.868,-9.534 l 7.137,-5.257 c 3.381,-2.201 7.896,-5.128 11.361,-7.195 l 8.825,-4.813 c 3.541,-1.708 8.248,-4.019 11.838,-5.623 l 10.366,-4.28 c 3.74,-1.358 8.71,-3.221 12.481,-4.493 l 11.79,-3.679 c 3.98,-1.079 9.28,-2.579 13.29,-3.58 l 12.95,-2.983 c 4.1,-0.798 9.55,-1.924 13.65,-2.653 l 13.46,-2.164 c 4.15,-0.537 9.67,-1.312 13.83,-1.787 l 13.78,-1.368 c 4.19,-0.295 9.76,-0.749 13.95,-0.983 l 13.94,-0.593 c 4.19,-0.063 9.78,-0.176 13.96,-0.212 l 13.94,0.167 c 4.17,0.163 9.72,0.31 13.88,0.544 l 13.77,0.92 c 4.1,0.389 9.58,0.848 13.68,1.297 l 13.43,1.663 c 4.02,0.619 9.38,1.383 13.38,2.064 l 12.92,2.407 c 3.9,0.859 9.12,1.943 13,2.87 l 12.22,3.149 c 3.78,1.124 8.84,2.56 12.6,3.761 l 11.3,3.881 c 3.67,1.438 8.59,3.297 12.22,4.827 l 9.75,4.399 c 11.5,5.873 21.44,10.945 34.42,21.401 l 6.01,5.227 c 2.92,2.876 6.73,6.79 9.46,9.835 l 4.33,5.459 c 1.74,2.532 4.04,5.919 5.64,8.542 l 3.03,5.642 c 1.06,2.38 2.48,5.55 3.42,7.981 l 1.9,5.815 c 0.57,2.33 1.35,5.43 1.8,7.78 l 0.84,5.98 c 0.14,2.34 0.36,5.45 0.39,7.78 0,7.5 -2.14,15.02 -6.45,22.39 0.45,-1.18 1.04,-2.75 1.49,-3.93 12.31,-47.8 -20.54,-67.251 -26.25,-63.18 -2.71,1.933 -3.86,6.747 -5.44,9.676 -7.6,14.044 -13.44,23.394 -36.91,38.044 -1.25,-0.48 -2.51,-0.89 -3.78,-1.23 49.62,-30.453 40.75,-70.887 -21.35,-97.252 C 312.129,2.712 213.489,-2.502 136.989,16.535 60.493,35.572 26.669,73.75 55.649,108.36 c 28.978,34.6 112.97,56.34 202.02,52.28 0.16,0.61 0.33,1.28 0.49,2.01"
   style="fill:#d6ab00"
   id="path119" />
						<path
   inkscape:connector-curvature="0"
   d="M 262.7,220.45 C 152.52,225.47 48.59,198.57 12.73,155.75 4.13,145.47 0,134.94 0,124.55 c 0.295,-7.53 0.34,-8.69 1.493,-15.16 l 1.442,-6.02 C 5.163,96.475 5.762,94.622 9.686,86.654 l 3.395,-5.828 c 4.888,-7.143 5.399,-7.889 9.716,-12.871 l 5.307,-5.589 c 3.187,-2.942 7.522,-6.775 10.868,-9.534 l 7.137,-5.257 C 49.49,45.374 54.005,42.447 57.47,40.38 l 8.825,-4.813 c 3.541,-1.708 8.248,-4.019 11.838,-5.623 l 10.366,-4.28 c 3.74,-1.358 8.71,-3.221 12.481,-4.493 l 11.79,-3.679 c 3.98,-1.079 9.28,-2.579 13.29,-3.58 l 12.95,-2.983 c 4.1,-0.798 9.55,-1.924 13.65,-2.653 l 13.46,-2.164 c 4.15,-0.537 9.67,-1.312 13.83,-1.787 l 13.78,-1.368 c 4.19,-0.295 9.76,-0.749 13.95,-0.983 l 13.94,-0.593 c 4.19,-0.063 9.78,-0.176 13.96,-0.212 l 13.94,0.167 c 4.17,0.163 9.72,0.31 13.88,0.544 l 13.77,0.92 c 4.1,0.389 9.58,0.848 13.68,1.297 l 13.43,1.663 c 4.02,0.619 9.38,1.383 13.38,2.064 l 12.92,2.407 c 3.9,0.859 9.12,1.943 13,2.87 l 12.22,3.149 c 3.78,1.124 8.84,2.56 12.6,3.761 l 11.3,3.881 c 3.67,1.438 8.59,3.297 12.22,4.827 l 9.75,4.399 c 11.5,5.873 21.44,10.945 34.42,21.401 l 6.01,5.227 c 2.92,2.876 6.73,6.79 9.46,9.835 l 4.33,5.459 c 1.74,2.532 4.04,5.919 5.64,8.542 l 3.03,5.642 c 1.06,2.38 2.48,5.55 3.42,7.981 l 1.9,5.815 c 0.57,2.33 1.35,5.43 1.8,7.78 l 0.84,5.98 c 0.14,2.34 0.36,5.45 0.39,7.78 0,2.1 -0.17,4.19 -0.5,6.29 0.09,-1.94 0.22,-4.52 0.31,-6.46 C 467.63,-19.08 120.11,-19.05 52.74,57.419 43.662,67.72 41.669,76.306 40.35,81.987 l -5.47,52.353 c 0.271,9.47 11.699,25.43 20.98,32.34 52.59,39.1 191.15,46.12 206.77,46.79 0.05,2.35 0.07,4.68 0.07,6.98"
   style="fill:#c29b00"
   id="path121" />
						<path
   inkscape:connector-curvature="0"
   d="M 262.7,220.45 C 152.52,225.47 48.59,198.57 12.73,155.75 4.13,145.47 0,134.94 0,124.55 c 0.295,-7.53 0.34,-8.69 1.493,-15.16 l 1.442,-6.02 C 5.163,96.475 5.762,94.622 9.686,86.654 l 3.395,-5.828 c 4.888,-7.143 5.399,-7.889 9.716,-12.871 l 5.307,-5.589 c 3.187,-2.942 7.522,-6.775 10.868,-9.534 l 7.137,-5.257 C 49.49,45.374 54.005,42.447 57.47,40.38 l 8.825,-4.813 c 3.541,-1.708 8.248,-4.019 11.838,-5.623 l 10.366,-4.28 c 3.74,-1.358 8.71,-3.221 12.481,-4.493 l 11.79,-3.679 c 3.98,-1.079 9.28,-2.579 13.29,-3.58 l 12.95,-2.983 c 4.1,-0.798 9.55,-1.924 13.65,-2.653 l 13.46,-2.164 c 4.15,-0.537 9.67,-1.312 13.83,-1.787 l 13.78,-1.368 c 4.19,-0.295 9.76,-0.749 13.95,-0.983 l 13.94,-0.593 c 4.19,-0.063 9.78,-0.176 13.96,-0.212 l 13.94,0.167 c 4.17,0.163 9.72,0.31 13.88,0.544 l 13.77,0.92 c 4.1,0.389 9.58,0.848 13.68,1.297 l 13.43,1.663 c 4.02,0.619 9.38,1.383 13.38,2.064 l 12.92,2.407 c 3.9,0.859 9.12,1.943 13,2.87 l 12.22,3.149 c 3.78,1.124 8.84,2.56 12.6,3.761 l 11.3,3.881 c 3.67,1.438 8.59,3.297 12.22,4.827 l 9.75,4.399 c 11.5,5.873 21.44,10.945 34.42,21.401 l 6.01,5.227 c 2.92,2.876 6.73,6.79 9.46,9.835 l 4.33,5.459 c 1.24,1.799 2.94,4.162 4.1,6.007 l -2.96,-4.403 C 379.33,-26.166 34.47,-26.346 16.91,108.25 3.286,212.62 185.07,217.54 262.7,219.64 v 0.81"
   style="fill:#ad8a00"
   id="path123" />
						<path
   inkscape:connector-curvature="0"
   d="M 12.733,155.75 C 4.13,145.47 0,134.94 0,124.55 c 0.295,-7.53 0.34,-8.69 1.493,-15.16 l 1.442,-6.02 C 5.163,96.475 5.762,94.622 9.686,86.654 l 3.395,-5.828 c 4.888,-7.143 5.399,-7.889 9.716,-12.871 l 5.307,-5.589 c 3.187,-2.942 7.522,-6.775 10.868,-9.534 l 7.137,-5.257 C 49.49,45.374 54.005,42.447 57.47,40.38 l 8.825,-4.813 c 3.541,-1.708 8.248,-4.019 11.838,-5.623 l 10.366,-4.28 c 3.74,-1.358 8.71,-3.221 12.481,-4.493 l 11.79,-3.679 c 3.98,-1.079 9.28,-2.579 13.29,-3.58 l 12.95,-2.983 c 4.1,-0.798 9.55,-1.924 13.65,-2.653 l 13.46,-2.164 c 4.15,-0.537 9.67,-1.312 13.83,-1.787 l 13.78,-1.368 c 4.19,-0.295 9.76,-0.749 13.95,-0.983 l 13.94,-0.593 c 4.19,-0.063 9.78,-0.176 13.96,-0.212 l 13.94,0.167 c 4.17,0.163 9.72,0.31 13.88,0.544 l 13.77,0.92 c 4.1,0.389 9.58,0.848 13.68,1.297 l 13.43,1.663 c 4.02,0.619 9.38,1.383 13.38,2.064 l 12.92,2.407 c 3.9,0.859 9.12,1.943 13,2.87 l 12.22,3.149 c 3.78,1.124 8.84,2.56 12.6,3.761 l 11.3,3.881 c 3.67,1.438 8.59,3.297 12.22,4.827 l 9.75,4.399 c 13.95,7.122 18.54,9.592 31.32,18.948 L 426.96,47.67 C 293.98,-42.083 -17.61,-0.505 10.02,133.88 c 1.133,5.52 5.05,20.02 16.88,35.36 -5.487,-4.3 -10.236,-8.8 -14.167,-13.49"
   style="fill:#997a00"
   id="path125" />
						<g
   id="g127">
							<path
   inkscape:connector-curvature="0"
   d="m 179.95,4.327 c 18.47,-1.833 18.47,-1.833 27.73,-2.351 l 13.94,-0.593 c 4.19,-0.063 9.78,-0.176 13.97,-0.212 l 13.93,0.167 c 4.17,0.163 9.72,0.31 13.88,0.544 L 277.17,2.8 c 4.1,0.389 9.58,0.848 13.68,1.297 L 304.28,5.76 313.56,7.147 300.3,5.226 C 249.16,-0.948 204.04,-0.079 153.99,8.045 l 13.48,-2.123 12.48,-1.595"
   style="fill:#856a00"
   id="path129" />
							<path
   inkscape:connector-curvature="0"
   d="m 149.47,8.856 c -14,2.79 -14,2.79 -20.45,4.333 l 13.02,-2.888 7.43,-1.445"
   style="fill:#856a00"
   id="path131" />
							<path
   inkscape:connector-curvature="0"
   d="m 0,124.55 c 0.295,-7.53 0.34,-8.69 1.493,-15.16 l 1.442,-6.02 C 5.163,96.475 5.762,94.622 9.686,86.654 l 3.395,-5.828 c 4.888,-7.143 5.399,-7.889 9.716,-12.871 l 5.307,-5.589 c 3.187,-2.942 7.522,-6.775 10.868,-9.534 l 7.137,-5.257 C 49.49,45.374 54.005,42.447 57.47,40.38 l 8.825,-4.813 c 3.541,-1.708 8.248,-4.019 11.838,-5.623 l 10.366,-4.28 c 3.74,-1.358 8.71,-3.221 12.481,-4.493 l 11.79,-3.679 10.64,-2.913 -9.28,2.52 C -5.37,53.822 -3.3,116.28 8.56,150.239 2.791,141.729 0,133.089 0,124.549"
   style="fill:#856a00"
   id="path133" />
						</g>
						<path
   inkscape:connector-curvature="0"
   d="m 0,124.55 c 0.295,-7.53 0.34,-8.69 1.493,-15.16 l 1.442,-6.02 C 5.163,96.475 5.762,94.622 9.686,86.654 l 3.395,-5.828 c 1.97,-2.879 4.662,-6.676 6.799,-9.435 L 15.281,77.52 C 8.909,87.66 -1.755,104.63 1.019,133.48 0.337,130.5 0,127.52 0,124.55"
   style="fill:#705900"
   id="path135" />
					</g>
				</g></g>
	<metadata
   id="metadata190"><rdf:RDF><cc:Work><dc:format>image/svg+xml</dc:format><dc:type
         rdf:resource="http://purl.org/dc/dcmitype/StillImage" /><cc:license
         rdf:resource="http://creativecommons.org/publicdomain/zero/1.0/" /><dc:publisher><cc:Agent
           rdf:about="http://openclipart.org/"><dc:title>OpenClipart</dc:title></cc:Agent></dc:publisher><dc:title>Cheese Wheel</dc:title><dc:date>2007-11-09T12:16:34</dc:date><dc:description></dc:description><dc:source>https://openclipart.org/detail/8104</dc:source><dc:creator><cc:Agent><dc:title>gramzon</dc:title></cc:Agent></dc:creator><dc:subject><rdf:Bag><rdf:li>cheese</rdf:li><rdf:li>wheel</rdf:li></rdf:Bag></dc:subject></cc:Work><cc:License
       rdf:about="http://creativecommons.org/publicdomain/zero/1.0/"><cc:permits
         rdf:resource="http://creativecommons.org/ns#Reproduction" /><cc:permits
         rdf:resource="http://creativecommons.org/ns#Distribution" /><cc:permits
         rdf:resource="http://creativecommons.org/ns#DerivativeWorks" /></cc:License></rdf:RDF></metadata></svg>